HIERARCHY
ROOT Hips
{
	OFFSET 0.000000 83.214638 0.000000
	CHANNELS 6 Xposition Yposition Zposition Xrotation Yrotation Zrotation
	JOINT Pelvis
	{
		OFFSET 0.000000 0.000000 0.000000
		CHANNELS 3 Xrotation Yrotation Zrotation
		JOINT LeftUpLeg
		{
			OFFSET 8.479700 -4.795502 -0.379100
			CHANNELS 3 Xrotation Yrotation Zrotation
			JOINT LeftLeg
			{
				OFFSET 0.024144 -32.555107 0.112900
				CHANNELS 3 Xrotation Yrotation Zrotation
				JOINT LeftFoot
				{
					OFFSET -0.024144 -32.638630 -3.012600
					CHANNELS 3 Xrotation Yrotation Zrotation
					JOINT LeftToeBase
					{
						OFFSET 0.970200 -13.225400 11.864200
						CHANNELS 3 Xrotation Yrotation Zrotation
						End Site
						{
							OFFSET 0.000000 12.319262 0.000000
						}
					}
					JOINT LFootTongue
					{
						OFFSET 1.142400 -1.059800 6.665200
						CHANNELS 3 Xrotation Yrotation Zrotation
						End Site
						{
							OFFSET 0.000000 12.319262 0.000000
						}
					}
				}
				JOINT LeftPantLeg
				{
					OFFSET 0.918482 -16.533964 -2.284700
					CHANNELS 3 Xrotation Yrotation Zrotation
					End Site
					{
						OFFSET 0.350399 24.744368 0.000000
					}
				}
			}
		}
		JOINT RightUpLeg
		{
			OFFSET -8.479700 -4.795502 -0.379100
			CHANNELS 3 Xrotation Yrotation Zrotation
			JOINT RightLeg
			{
				OFFSET -0.023144 -32.555092 0.112900
				CHANNELS 3 Xrotation Yrotation Zrotation
				JOINT RightFoot
				{
					OFFSET 0.023144 -32.638641 -3.012700
					CHANNELS 3 Xrotation Yrotation Zrotation
					JOINT RightToeBase
					{
						OFFSET -0.970200 -13.225400 11.864200
						CHANNELS 3 Xrotation Yrotation Zrotation
						End Site
						{
							OFFSET 0.000000 12.319244 0.000000
						}
					}
					JOINT RFootTongue
					{
						OFFSET -1.142200 -1.059800 6.665200
						CHANNELS 3 Xrotation Yrotation Zrotation
						End Site
						{
							OFFSET 0.000000 12.319243 0.000000
						}
					}
				}
				JOINT RightPantLeg
				{
					OFFSET -0.919482 -16.533978 -2.284800
					CHANNELS 3 Xrotation Yrotation Zrotation
					End Site
					{
						OFFSET -0.350400 24.744419 0.000000
					}
				}
			}
		}
	}
	JOINT Spine
	{
		OFFSET 0.000000 7.722000 1.166200
		CHANNELS 3 Xrotation Yrotation Zrotation
		JOINT Spine1
		{
			OFFSET 0.000000 12.024101 0.248800
			CHANNELS 3 Xrotation Yrotation Zrotation
			JOINT Spine2
			{
				OFFSET 0.000000 11.502998 -0.491200
				CHANNELS 3 Xrotation Yrotation Zrotation
				JOINT Neck
				{
					OFFSET 0.000000 18.430702 -3.123100
					CHANNELS 3 Xrotation Yrotation Zrotation
					JOINT Head
					{
						OFFSET 0.000000 9.051102 1.034000
						CHANNELS 3 Xrotation Yrotation Zrotation
						JOINT HairB
						{
							OFFSET 0.208400 24.786102 24.822300
							CHANNELS 3 Xrotation Yrotation Zrotation
							End Site
							{
								OFFSET 0.000000 32.263779 0.000000
							}
						}
						JOINT HairA
						{
							OFFSET -7.081100 24.428299 23.196600
							CHANNELS 3 Xrotation Yrotation Zrotation
							End Site
							{
								OFFSET 0.000000 32.263779 0.000000
							}
						}
						JOINT Hat
						{
							OFFSET 16.728800 15.048294 -15.439601
							CHANNELS 3 Xrotation Yrotation Zrotation
							End Site
							{
								OFFSET 0.000000 32.263779 0.000000
							}
						}
					}
				}
				JOINT LeftShoulder
				{
					OFFSET 6.197800 13.665199 -4.064700
					CHANNELS 3 Xrotation Yrotation Zrotation
					JOINT LeftArm
					{
						OFFSET 7.778100 -0.187103 -1.709300
						CHANNELS 3 Xrotation Yrotation Zrotation
						JOINT LeftForeArm
						{
							OFFSET 22.049376 0.000000 0.000000
							CHANNELS 3 Xrotation Yrotation Zrotation
							JOINT LeftHand
							{
								OFFSET 23.009392 0.000000 0.000000
								CHANNELS 3 Xrotation Yrotation Zrotation
								JOINT LeftHandThumb1
								{
									OFFSET 3.507191 -2.063065 3.133727
									CHANNELS 3 Xrotation Yrotation Zrotation
									JOINT LeftHandThumb2
									{
										OFFSET 3.101337 -1.790558 1.790558
										CHANNELS 3 Xrotation Yrotation Zrotation
										JOINT LeftHandThumb3
										{
											OFFSET 3.058640 -1.765907 1.765906
											CHANNELS 3 Xrotation Yrotation Zrotation
											End Site
											{
												OFFSET -0.415260 3.926476 -0.049563
											}
										}
									}
								}
								JOINT LeftHandIndex1
								{
									OFFSET 11.334419 -0.901459 3.706815
									CHANNELS 3 Xrotation Yrotation Zrotation
									JOINT LeftHandIndex2
									{
										OFFSET 3.283112 0.000000 0.000000
										CHANNELS 3 Xrotation Yrotation Zrotation
										JOINT LeftHandIndex3
										{
											OFFSET 3.323853 0.000000 0.000000
											CHANNELS 3 Xrotation Yrotation Zrotation
											End Site
											{
												OFFSET -1.135597 3.097809 0.402452
											}
										}
									}
								}
								JOINT LeftHandMiddle1
								{
									OFFSET 11.335861 0.000000 0.000000
									CHANNELS 3 Xrotation Yrotation Zrotation
									JOINT LeftHandMiddle2
									{
										OFFSET 3.410492 0.000000 0.000000
										CHANNELS 3 Xrotation Yrotation Zrotation
										JOINT LeftHandMiddle3
										{
											OFFSET 3.312172 0.000000 0.000000
											CHANNELS 3 Xrotation Yrotation Zrotation
											End Site
											{
												OFFSET -1.150200 3.080154 0.400270
											}
										}
									}
								}
								JOINT LeftHandRing1
								{
									OFFSET 11.514786 -0.013176 -3.003090
									CHANNELS 3 Xrotation Yrotation Zrotation
									JOINT LeftHandRing2
									{
										OFFSET 3.053307 0.000000 0.000000
										CHANNELS 3 Xrotation Yrotation Zrotation
										JOINT LeftHandRing3
										{
											OFFSET 3.295807 0.000000 0.000000
											CHANNELS 3 Xrotation Yrotation Zrotation
											End Site
											{
												OFFSET -1.281006 3.013344 0.375733
											}
										}
									}
								}
								JOINT LeftHandPinky1
								{
									OFFSET 10.518692 -0.960396 -5.730441
									CHANNELS 3 Xrotation Yrotation Zrotation
									JOINT LeftHandPinky2
									{
										OFFSET 2.861649 0.000000 0.000000
										CHANNELS 3 Xrotation Yrotation Zrotation
										JOINT LeftHandPinky3
										{
											OFFSET 2.863380 0.000000 0.000000
											CHANNELS 3 Xrotation Yrotation Zrotation
											End Site
											{
												OFFSET -0.843597 2.711159 0.369971
											}
										}
									}
								}
							}
							JOINT LSleeve
							{
								OFFSET 6.676277 -0.344902 -1.011730
								CHANNELS 3 Xrotation Yrotation Zrotation
								End Site
								{
									OFFSET 0.000000 14.885353 0.000000
								}
							}
						}
					}
				}
				JOINT RightShoulder
				{
					OFFSET -6.197800 13.665199 -4.064700
					CHANNELS 3 Xrotation Yrotation Zrotation
					JOINT RightArm
					{
						OFFSET -7.778100 -0.187103 -1.709300
						CHANNELS 3 Xrotation Yrotation Zrotation
						JOINT RightForeArm
						{
							OFFSET -22.049376 0.000000 0.000000
							CHANNELS 3 Xrotation Yrotation Zrotation
							JOINT RightHand
							{
								OFFSET -23.009392 0.000000 0.000000
								CHANNELS 3 Xrotation Yrotation Zrotation
								JOINT RightHandThumb1
								{
									OFFSET -3.507191 -2.063065 3.133727
									CHANNELS 3 Xrotation Yrotation Zrotation
									JOINT RightHandThumb2
									{
										OFFSET -3.101337 -1.790558 1.790558
										CHANNELS 3 Xrotation Yrotation Zrotation
										JOINT RightHandThumb3
										{
											OFFSET -3.058640 -1.765907 1.765906
											CHANNELS 3 Xrotation Yrotation Zrotation
											End Site
											{
												OFFSET 0.415260 3.926476 -0.049563
											}
										}
									}
								}
								JOINT RightHandIndex1
								{
									OFFSET -11.334419 -0.901459 3.706815
									CHANNELS 3 Xrotation Yrotation Zrotation
									JOINT RightHandIndex2
									{
										OFFSET -3.283112 0.000000 0.000000
										CHANNELS 3 Xrotation Yrotation Zrotation
										JOINT RightHandIndex3
										{
											OFFSET -3.323853 0.000000 0.000000
											CHANNELS 3 Xrotation Yrotation Zrotation
											End Site
											{
												OFFSET 1.135597 3.097809 0.402452
											}
										}
									}
								}
								JOINT RightHandMiddle1
								{
									OFFSET -11.335861 0.000000 0.000000
									CHANNELS 3 Xrotation Yrotation Zrotation
									JOINT RightHandMiddle2
									{
										OFFSET -3.410492 0.000000 0.000000
										CHANNELS 3 Xrotation Yrotation Zrotation
										JOINT RightHandMiddle3
										{
											OFFSET -3.312172 0.000000 0.000000
											CHANNELS 3 Xrotation Yrotation Zrotation
											End Site
											{
												OFFSET 1.150200 3.080154 0.400270
											}
										}
									}
								}
								JOINT RightHandRing1
								{
									OFFSET -11.514786 -0.013176 -3.003090
									CHANNELS 3 Xrotation Yrotation Zrotation
									JOINT RightHandRing2
									{
										OFFSET -3.053307 0.000000 0.000000
										CHANNELS 3 Xrotation Yrotation Zrotation
										JOINT RightHandRing3
										{
											OFFSET -3.295807 0.000000 0.000000
											CHANNELS 3 Xrotation Yrotation Zrotation
											End Site
											{
												OFFSET 1.281006 3.013344 0.375733
											}
										}
									}
								}
								JOINT RightHandPinky1
								{
									OFFSET -10.518692 -0.960396 -5.730441
									CHANNELS 3 Xrotation Yrotation Zrotation
									JOINT RightHandPinky2
									{
										OFFSET -2.861649 0.000000 0.000000
										CHANNELS 3 Xrotation Yrotation Zrotation
										JOINT RightHandPinky3
										{
											OFFSET -2.863380 0.000000 0.000000
											CHANNELS 3 Xrotation Yrotation Zrotation
											End Site
											{
												OFFSET 0.843597 2.711159 0.369971
											}
										}
									}
								}
							}
							JOINT RSleeve
							{
								OFFSET -6.676277 -0.344902 -1.011730
								CHANNELS 3 Xrotation Yrotation Zrotation
								End Site
								{
									OFFSET 0.000000 14.885353 0.000000
								}
							}
						}
					}
				}
				JOINT Backpack
				{
					OFFSET 0.000000 -2.471497 36.677502
					CHANNELS 3 Xrotation Yrotation Zrotation
					End Site
					{
						OFFSET 0.000000 20.427315 0.000000
					}
				}
				JOINT Hood
				{
					OFFSET 0.000000 18.754097 -10.431000
					CHANNELS 3 Xrotation Yrotation Zrotation
					JOINT Hood1
					{
						OFFSET 0.000000 -5.011002 -7.685901
						CHANNELS 3 Xrotation Yrotation Zrotation
						End Site
						{
							OFFSET 0.000000 9.175140 0.000000
						}
					}
				}
				JOINT LHoodieString
				{
					OFFSET 5.250500 16.397697 3.089900
					CHANNELS 3 Xrotation Yrotation Zrotation
					JOINT LHoodieString1
					{
						OFFSET 0.257700 -6.364304 3.694600
						CHANNELS 3 Xrotation Yrotation Zrotation
						JOINT LHoodieString2
						{
							OFFSET 0.000000 -9.643799 2.679100
							CHANNELS 3 Xrotation Yrotation Zrotation
							End Site
							{
								OFFSET 0.000000 10.009018 0.000000
							}
						}
					}
				}
				JOINT RHoodieString
				{
					OFFSET -5.250500 16.397697 3.089900
					CHANNELS 3 Xrotation Yrotation Zrotation
					JOINT RHoodieString1
					{
						OFFSET -0.257700 -6.364304 3.694600
						CHANNELS 3 Xrotation Yrotation Zrotation
						JOINT RHoodieString2
						{
							OFFSET 0.000000 -9.643799 2.679100
							CHANNELS 3 Xrotation Yrotation Zrotation
							End Site
							{
								OFFSET 0.000000 10.009018 0.000000
							}
						}
					}
				}
			}
			JOINT LBackpack_Strap
			{
				OFFSET 15.223200 -7.719803 -6.610900
				CHANNELS 3 Xrotation Yrotation Zrotation
				End Site
				{
					OFFSET 0.000000 16.040596 0.000000
				}
			}
			JOINT RBackpack_Strap
			{
				OFFSET -15.223000 -7.719803 -6.610900
				CHANNELS 3 Xrotation Yrotation Zrotation
				End Site
				{
					OFFSET 0.000000 16.040596 0.000000
				}
			}
		}
	}
	JOINT BoyFacialAnim_Joint
	{
		OFFSET 1.000000 -82.208099 -1.550900
		CHANNELS 3 Xrotation Yrotation Zrotation
		End Site
		{
			OFFSET 0.000000 30.012791 0.000000
		}
	}
}
MOTION
Frames: 4
Frame Time: 0.016667
-0.134147 80.337662 0.758355 -0.587384 -0.364402 -0.317422 -0.000000 0.000000 -0.000000 -12.300285 4.860548 8.084354 26.566379 3.848059 1.341879 -13.018424 1.563164 -9.068850 -0.000000 0.000000 -0.000000 -0.000000 0.000000 -0.000000 -0.000001 -0.000001 -0.000000 -11.820471 1.412842 -1.917778 27.373658 -1.661226 -2.653423 -14.851794 -0.920918 5.482887 -0.000000 -0.000000 0.000000 -0.000000 -0.000000 0.000000 -0.000001 -0.000000 0.000000 0.361242 -0.185105 0.269411 -1.750145 -0.199001 0.196420 -1.750108 -0.188404 0.203701 -0.289762 -0.205837 -0.385588 4.702785 -2.136757 3.065841 0.000000 0.000000 -0.000000 0.000000 0.000000 -0.000000 0.000000 0.000000 -0.000000 0.993405 -13.202431 -11.017494 16.778892 -19.384213 -67.597371 -0.000004 -17.727281 -0.000002 -41.262231 6.787874 3.627186 -5.917894 16.359053 4.033992 -3.203462 11.997062 3.444670 -0.000000 -0.000001 -0.000000 0.260629 1.880091 -15.783517 0.260634 1.880099 -15.783604 -0.000001 -0.000001 -0.000002 0.523423 2.637846 -22.443066 0.524902 2.641407 -22.475117 0.000000 0.000000 -0.000002 0.898046 3.405135 -29.540968 0.898040 3.405137 -29.540968 -0.000001 0.000001 -0.000004 2.843613 6.562528 -31.481903 1.050194 -0.422453 -32.253605 -0.000000 0.000000 0.000005 0.000001 0.000001 0.000000 1.651816 9.058838 10.503889 6.412941 25.534616 64.587519 0.000008 12.370161 -0.000007 -21.507981 -14.216161 -3.290119 7.843970 -10.746971 2.716234 0.430945 -17.559392 -11.583991 0.000003 -0.000001 0.000000 0.528297 -2.663091 22.437113 0.528298 -2.663092 22.437122 -0.000003 0.000001 0.000002 1.160563 -3.851158 33.530095 1.160563 -3.851138 33.530123 0.000001 0.000001 0.000000 1.843404 -4.719923 42.648422 1.843398 -4.719925 42.648435 0.000000 0.000003 0.000002 1.994906 -4.878704 44.459105 1.994915 -4.878734 44.459112 -0.000000 -0.000000 0.000000 0.000003 0.000000 -0.000001 -0.000000 0.000000 -0.000000 -0.000000 0.000000 -0.000000 -0.000000 0.000000 -0.000000 -0.000000 0.000000 -0.000000 -0.000000 0.000000 -0.000000 -0.000000 0.000000 -0.000000 -0.000000 0.000000 -0.000000 -0.000000 0.000000 -0.000000 -0.000000 0.000000 -0.000000 -0.000000 0.000000 0.000000 -0.000000 0.000000 0.000000 -0.000000 0.000000 -0.000000 
-0.115175 80.343506 0.746668 -0.575615 -0.346236 -0.282187 -0.000000 0.000000 -0.000000 -12.310787 4.900310 8.015810 26.528284 3.810803 1.386796 -12.989367 1.562758 -9.086991 0.000000 0.000000 -0.000000 0.000000 0.000000 -0.000000 0.000000 -0.000001 0.000000 -11.839142 1.386273 -2.000479 27.370436 -1.662647 -2.609465 -14.838060 -0.923064 5.480794 0.000000 0.000000 -0.000000 0.000000 0.000000 -0.000000 0.000001 0.000000 0.000000 0.375033 -0.164279 0.248195 -1.755795 -0.176235 0.190827 -1.755715 -0.166635 0.197366 -0.262666 -0.209938 -0.406779 4.752852 -2.162301 3.061369 -0.000000 0.000000 -0.000000 -0.000000 0.000000 -0.000000 -0.000000 0.000000 -0.000000 0.994040 -13.267618 -11.041541 16.766354 -19.385894 -67.571314 0.000008 -17.712822 0.000014 -41.267118 6.584304 3.801904 -5.917887 16.359056 4.033975 -3.203474 11.997059 3.444700 0.000000 -0.000000 0.000002 0.260630 1.880093 -15.783524 0.260634 1.880099 -15.783618 -0.000000 -0.000001 -0.000004 0.523423 2.637847 -22.443073 0.524904 2.641404 -22.475106 -0.000000 -0.000000 0.000000 0.898048 3.405135 -29.540992 0.898040 3.405138 -29.540968 -0.000002 0.000000 0.000005 2.843614 6.562528 -31.481903 1.050195 -0.422455 -32.253615 0.000000 0.000000 -0.000000 -0.000001 0.000001 0.000000 1.651097 9.037780 10.513389 6.473524 25.519865 64.541429 0.000004 12.373798 -0.000010 -21.518702 -14.342735 -3.277674 7.843967 -10.746967 2.716234 0.430953 -17.559390 -11.583985 0.000001 -0.000002 0.000001 0.528297 -2.663093 22.437100 0.528291 -2.663085 22.437137 -0.000004 0.000000 0.000000 1.160565 -3.851155 33.530088 1.160566 -3.851152 33.530071 -0.000002 0.000001 0.000003 1.843407 -4.719921 42.648429 1.843398 -4.719923 42.648418 -0.000002 -0.000003 0.000003 1.994914 -4.878705 44.459084 1.994913 -4.878728 44.459146 -0.000001 -0.000002 -0.000000 0.000002 -0.000002 0.000001 -0.000001 0.000000 0.000000 -0.000001 0.000000 0.000000 -0.000001 0.000000 0.000000 -0.000001 0.000000 0.000000 -0.000001 0.000000 0.000000 -0.000000 0.000000 0.000000 -0.000001 0.000000 0.000000 -0.000001 0.000000 0.000000 -0.000000 0.000000 0.000000 -0.000000 0.000000 -0.000000 -0.000000 0.000000 -0.000000 -0.000000 0.000000 -0.000000 
-0.084945 80.347389 0.735691 -0.563352 -0.332866 -0.232607 0.000000 0.000000 0.000000 -12.321838 4.945872 7.921314 26.500294 3.777743 1.434351 -12.970178 1.561060 -9.102322 0.000000 -0.000000 -0.000000 0.000000 -0.000000 -0.000000 0.000001 -0.000001 0.000001 -11.868933 1.351087 -2.119549 27.389159 -1.637646 -2.552162 -14.835558 -0.926450 5.478592 0.000000 -0.000000 0.000000 0.000000 -0.000000 0.000000 0.000001 -0.000000 -0.000000 0.389091 -0.143012 0.223812 -1.758987 -0.152911 0.185722 -1.758853 -0.144486 0.191302 -0.234934 -0.223743 -0.429562 4.682464 -2.228106 3.016739 0.000000 -0.000000 0.000000 0.000000 -0.000000 0.000000 0.000000 -0.000000 0.000000 0.994574 -13.331120 -11.067195 16.711238 -19.428798 -67.559389 0.000002 -17.694302 -0.000004 -41.232831 6.340759 3.993474 -5.917888 16.359048 4.033978 -3.203468 11.997065 3.444669 0.000000 0.000001 0.000002 0.260630 1.880092 -15.783531 0.260636 1.880097 -15.783601 -0.000000 -0.000000 -0.000000 0.523425 2.637845 -22.443080 0.524901 2.641406 -22.475105 -0.000001 0.000001 0.000000 0.898047 3.405133 -29.540957 0.898041 3.405137 -29.540957 -0.000000 0.000001 -0.000002 2.843614 6.562526 -31.481879 1.050197 -0.422455 -32.253618 0.000000 0.000001 -0.000002 0.000001 0.000000 0.000001 1.655696 9.081051 10.518680 6.559966 25.463662 64.487320 0.000001 12.345264 -0.000001 -21.449309 -14.196722 -3.323725 7.843966 -10.746973 2.716232 0.430953 -17.559385 -11.583968 0.000001 0.000001 0.000004 0.528294 -2.663092 22.437101 0.528293 -2.663089 22.437112 -0.000001 0.000000 0.000002 1.160560 -3.851157 33.530095 1.160569 -3.851147 33.530088 0.000001 -0.000001 -0.000000 1.843406 -4.719919 42.648415 1.843395 -4.719921 42.648446 -0.000001 -0.000000 -0.000001 1.994908 -4.878707 44.459098 1.994913 -4.878731 44.459132 -0.000001 0.000003 -0.000001 0.000003 -0.000000 -0.000000 -0.000000 0.000000 -0.000000 -0.000000 0.000000 -0.000000 -0.000000 0.000000 -0.000000 -0.000000 0.000000 -0.000000 -0.000000 0.000000 -0.000000 0.000000 0.000000 -0.000000 -0.000000 0.000000 -0.000000 -0.000000 0.000000 -0.000000 0.000000 0.000000 -0.000000 -0.000000 -0.000000 -0.000000 -0.000000 -0.000000 -0.000000 0.000000 0.000000 0.000000 
-0.045250 80.356491 0.721125 -0.547728 -0.347472 -0.169351 0.000000 0.000000 0.000000 -12.310219 4.977960 7.820724 26.437468 3.783982 1.436713 -12.933573 1.558987 -9.096437 -0.000000 0.000001 0.000000 -0.000000 0.000001 0.000000 -0.000000 -0.000001 -0.000001 -11.899929 1.359744 -2.263070 27.387361 -1.599288 -2.481033 -14.814530 -0.929764 5.478633 -0.000000 0.000000 0.000000 -0.000000 0.000000 0.000000 0.000000 -0.000000 -0.000000 0.417345 -0.114904 0.192331 -1.760835 -0.122205 0.183156 -1.760679 -0.115203 0.187763 -0.200768 -0.240773 -0.429505 4.617258 -2.258966 2.936578 -0.000000 0.000000 -0.000000 -0.000000 0.000000 -0.000000 -0.000000 0.000000 -0.000000 0.993603 -13.360153 -11.115196 16.611225 -19.504158 -67.520436 0.000000 -17.678770 0.000004 -41.176557 6.072787 4.205063 -5.917891 16.359041 4.034006 -3.203472 11.997063 3.444671 0.000000 0.000002 -0.000000 0.260632 1.880090 -15.783503 0.260633 1.880101 -15.783611 0.000000 -0.000001 -0.000002 0.523424 2.637843 -22.443047 0.524902 2.641406 -22.475111 -0.000000 0.000001 0.000000 0.898047 3.405133 -29.540957 0.898040 3.405141 -29.540981 -0.000000 -0.000000 0.000001 2.843609 6.562525 -31.481858 1.050197 -0.422456 -32.253615 -0.000000 0.000000 0.000003 -0.000001 0.000000 0.000000 1.663817 9.137676 10.542183 6.627463 25.453458 64.389272 0.000002 12.280776 0.000004 -21.391201 -14.081756 -3.324071 7.843971 -10.746969 2.716237 0.430953 -17.559392 -11.583970 0.000000 0.000002 0.000002 0.528295 -2.663093 22.437134 0.528297 -2.663089 22.437124 -0.000003 -0.000001 -0.000002 1.160563 -3.851155 33.530095 1.160566 -3.851143 33.530109 -0.000002 -0.000000 0.000003 1.843404 -4.719921 42.648432 1.843405 -4.719923 42.648449 -0.000003 0.000002 0.000002 1.994909 -4.878706 44.459095 1.994918 -4.878728 44.459132 0.000001 0.000001 -0.000001 -0.000001 -0.000002 0.000001 0.000000 0.000000 -0.000000 0.000000 0.000000 -0.000000 0.000000 0.000000 -0.000000 0.000000 0.000000 -0.000000 0.000000 0.000000 -0.000000 0.000001 0.000000 0.000000 0.000000 0.000000 -0.000000 0.000000 0.000000 -0.000000 0.000001 0.000000 0.000000 0.000000 -0.000000 -0.000000 0.000000 -0.000000 -0.000000 0.000000 0.000000 0.000000 
